<svg width="120" height="120" viewBox="0 0 120 120" fill="none" xmlns="http://www.w3.org/2000/svg">

    <g id="JAVACRIPT">
    <path d="M2.25488 0H117.745V120H2.25488V0Z" fill="#F7DF1E"/>
    <path d="M32.6201 100.28L41.4582 94.7229C43.1632 97.8641 44.7143 100.522 48.4347 100.522C52.001 100.522 54.2494 99.0723 54.2494 93.4342V55.0913H65.1025V93.5936C65.1025 105.274 58.5134 110.59 48.9 110.59C40.2179 110.59 35.1781 105.918 32.6199 100.28" fill="black"/>
    <path d="M71 99.0723L79.837 93.7559C82.1633 97.7033 85.1868 100.603 90.5357 100.603C95.0326 100.603 97.9003 98.2668 97.9003 95.0447C97.9003 91.1782 94.9545 89.8087 89.9929 87.554L87.2803 86.3449C79.4499 82.8818 74.2555 78.5321 74.2555 69.3491C74.2555 60.8912 80.4574 54.4468 90.1483 54.4468C97.048 54.4468 102.01 56.9441 105.575 63.4689L97.125 69.1071C95.2644 65.6437 93.2493 64.2746 90.1485 64.2746C86.9699 64.2746 84.9542 66.3689 84.9542 69.1071C84.9542 72.4904 86.9699 73.8601 91.6209 75.9546L94.334 77.1628C103.56 81.2711 108.754 85.4593 108.754 94.8835C108.754 105.034 101.079 110.591 90.7685 110.591C80.6904 110.591 74.1782 105.597 71.0002 99.0723" fill="black"/>
</g>
    <g id="typescript">

            <path d="M0 60V120H60H120V60V0H60H0V60Z" fill="#007ACC"/>
            <path d="M26.5373 60.3979L26.4992 65.3122H34.3087H42.1182L42.1182 87.5026V109.693H47.6421H53.1659V87.5026L53.1659 65.3122H60.9754H68.7849V60.4931C68.7849 57.8264 68.7278 55.5979 68.6516 55.5407C68.5944 55.4645 59.0897 55.4264 47.5659 55.4455L26.5944 55.5026L26.5373 60.3979Z" fill="white"/>
            <path d="M96.8265 55.3636C99.8741 56.1255 102.198 57.4779 104.331 59.6874C105.436 60.8684 107.074 63.0208 107.207 63.535C107.246 63.6874 102.026 67.1922 98.8646 69.1541C98.7503 69.2303 98.2931 68.7351 97.7789 67.9731C96.236 65.7255 94.6169 64.7541 92.1408 64.5827C88.5027 64.335 86.1598 66.2398 86.1789 69.4208C86.1789 70.3541 86.3122 70.9065 86.6931 71.6684C87.4931 73.3255 88.9789 74.316 93.6455 76.3351C102.236 80.0303 105.912 82.4684 108.198 85.935C110.75 89.8017 111.322 95.9731 109.588 100.564C107.684 105.554 102.96 108.945 96.3122 110.068C94.255 110.43 89.3789 110.373 87.1693 109.973C82.3503 109.116 77.7789 106.735 74.9598 103.611C73.855 102.392 71.7027 99.2112 71.836 98.9827C71.8931 98.9065 72.3884 98.6017 72.9408 98.2779C73.4741 97.9731 75.4931 96.8112 77.3979 95.7065L80.8455 93.7065L81.5693 94.7731C82.5789 96.316 84.7884 98.4303 86.1217 99.135C89.9503 101.154 95.2074 100.868 97.7979 98.5446C98.9027 97.535 99.3598 96.4874 99.3598 94.9446C99.3598 93.5541 99.1884 92.9446 98.4646 91.897C97.5312 90.5636 95.6265 89.4398 90.2169 87.097C84.0265 84.4303 81.3598 82.7731 78.9217 80.1446C77.5122 78.6208 76.1789 76.1827 75.6265 74.1446C75.1693 72.4493 75.055 68.2017 75.4169 66.4874C76.6931 60.5065 81.2074 56.335 87.7217 55.097C89.836 54.697 94.7503 54.8493 96.8265 55.3636Z" fill="white"/>
    </g>

        <g id ="styled Component">
            <path d="M68.7673 118.279C68.9473 117.872 69.4015 117.589 69.7315 117.246C74.7666 111.967 79.8446 106.735 84.8111 101.391C86.3653 99.9558 87.5662 98.1804 88.32 96.2036C89.0739 94.2269 89.3601 92.1026 89.1563 89.9968C89.0004 89.0951 88.7958 88.2025 88.5435 87.3229C87.1894 88.6084 85.9296 89.7783 84.6611 90.9567C82.6899 92.7908 80.7273 94.6334 78.739 96.4461C77.5665 97.6415 76.059 98.4531 74.4156 98.7737C72.7721 99.0943 71.0701 98.9087 69.5344 98.2416C67.9797 97.6705 66.627 96.6553 65.6443 95.3221C64.6616 93.9889 64.092 92.3965 64.0064 90.7425C63.9604 90.5297 63.8988 90.3206 63.8222 90.1168C62.3095 91.4024 60.8611 92.5851 59.4256 93.8021L29.5877 119.085C29.382 119.261 29.1591 119.479 28.9663 119.65H68.7459L68.6859 119.612C68.4716 119.462 68.583 118.673 68.7673 118.279Z" fill="#FFCEBF"/>
            <path d="M27.1436 118.279C27.4974 117.818 27.9245 117.418 28.4077 117.096L69.7 82.0642C72.5168 79.6731 75.3207 77.2691 78.1118 74.8522C78.4567 74.6118 78.727 74.2791 78.8918 73.8924C79.5594 70.9831 79.654 67.9717 79.1703 65.0263C78.7418 65.3262 78.5104 65.4548 78.3132 65.6648C74.9322 68.6901 71.5683 71.7412 68.1702 74.7494C67.0445 75.8824 65.5885 76.6292 64.0116 76.8825C62.4346 77.1359 60.818 76.8826 59.3941 76.1592C57.9414 75.4734 56.7256 74.3709 55.9014 72.992C55.0773 71.6131 54.682 70.0201 54.766 68.4159V67.0275C54.1447 67.4817 53.6905 67.7859 53.2662 68.1287C36.7396 81.3615 20.2159 94.5842 3.69496 107.797C2.94933 108.393 2.05801 109.721 1.08098 108.431C0.103957 107.141 1.59092 106.61 2.34083 106.01C19.953 91.8774 37.5738 77.7576 55.2031 63.6507C58.0742 61.3496 58.2628 60.3854 56.3944 56.7301L55.2803 57.7757C52.2249 60.6168 49.1353 63.4193 46.1271 66.3075C44.8931 67.4978 43.3476 68.3148 41.6691 68.6641C39.9906 69.0135 38.2476 68.8809 36.6412 68.2818C35.0348 67.6827 33.6306 66.6415 32.5908 65.2784C31.5509 63.9153 30.9178 62.2858 30.7646 60.5782C30.1947 61.0067 29.7019 61.3196 29.2348 61.6838L3.09503 81.9443C2.64419 82.3864 2.13005 82.7591 1.5695 83.0498C1.14643 83.1777 0.692134 83.155 0.283936 82.9856V119.671H27.0922C26.9925 119.451 26.9453 119.21 26.9542 118.969C26.9631 118.727 27.028 118.491 27.1436 118.279Z" fill="#FFCEBF"/>
            <path d="M99.5652 1.82096C98.8367 4.20782 98.1297 6.59897 97.4912 9.01154C96.9014 10.7164 96.97 12.5802 97.6836 14.2371C98.3971 15.8941 99.704 17.2246 101.348 17.9676C106.376 20.6107 112.042 21.798 117.709 21.3958V2.22806C117.646 1.80781 117.669 1.37914 117.777 0.968207C117.897 0.73576 118.049 0.520916 118.227 0.329712H99.5481C99.8352 0.663958 99.7366 1.25103 99.5652 1.82096Z" fill="#FF6196"/>
            <path d="M62.051 42.9976C61.9621 45.137 61.2137 47.1966 59.9084 48.894C55.2418 54.9179 49.8828 60.3719 43.9417 65.1435C42.9836 66.0304 41.7693 66.591 40.4728 66.745C39.1764 66.8989 37.8646 66.6383 36.7254 66.0005C35.5916 65.5161 34.6356 64.6925 33.9887 63.6428C33.3419 62.5932 33.036 61.369 33.113 60.1384C33.2502 58.627 33.8777 57.202 34.8999 56.0803C41.5434 49.7455 48.7414 44.019 56.4074 38.9695C56.9094 38.5758 57.5226 38.3499 58.1601 38.3237C58.7976 38.2976 59.4272 38.4725 59.9598 38.8238C60.6598 39.2585 61.2258 39.8786 61.5949 40.6153C61.9641 41.352 62.1219 42.1766 62.051 42.9976Z" fill="#FF87AF"/>
            <path d="M56.9126 68.97C56.8131 68.0228 56.9347 67.0654 57.2678 66.1731C57.6009 65.2809 58.1365 64.478 58.8324 63.8277C65.3372 57.8281 72.3163 52.3638 79.7013 47.4883C79.9241 47.3468 80.1298 47.2054 80.3741 47.0597C81.0192 46.594 81.8008 46.356 82.5959 46.3832C83.3911 46.4103 84.1546 46.7011 84.7664 47.2097C85.3584 47.7112 85.7772 48.3865 85.9634 49.1396C86.1496 49.8928 86.0936 50.6854 85.8034 51.4049C84.8691 54.5168 83.1448 57.3337 80.7983 59.5811C76.0329 64.2758 71.1753 68.8762 66.2286 73.3795C65.4836 74.1456 64.5051 74.6422 63.4469 74.7911C62.3888 74.9401 61.3111 74.7329 60.3836 74.2022C59.409 73.6958 58.5791 72.9499 57.9719 72.0347C57.3648 71.1194 57.0002 70.0648 56.9126 68.97Z" fill="#FF87AF"/>
            <path d="M87.8344 71.8015C86.6346 73.0871 85.4004 74.3126 84.2477 75.6282C83.9011 76.1367 83.6136 76.683 83.3907 77.2566C84.0249 77.4451 84.7662 77.9422 85.2804 77.7665C87.8987 76.888 90.4527 75.8339 93.3281 74.724C92.7024 76.1638 92.231 77.4922 91.5668 78.7092C88.8305 83.3078 85.4038 87.4587 81.4066 91.0164C79.8868 92.4819 78.3084 93.8832 76.6715 95.2201C75.8046 95.9395 74.7622 96.4157 73.6509 96.6001C72.5396 96.7844 71.3992 96.6702 70.3465 96.2692C69.2938 95.8681 68.3665 95.1947 67.6595 94.3176C66.9525 93.4406 66.4912 92.3916 66.3227 91.2778C66.254 90.6585 66.3087 90.0317 66.4838 89.4337C66.6589 88.8357 66.9507 88.2784 67.3426 87.7939C73.174 81.4614 79.8384 75.9503 87.1531 71.4115C87.242 71.3771 87.3363 71.3582 87.4316 71.3558L87.8344 71.8015Z" fill="#FF87AF"/>
            <path d="M97.6724 54.7335L105.004 22.1659L110.147 23.37L107.494 31.4305C105.017 38.9296 102.51 46.4287 100.093 53.9364C99.6221 55.3248 99.0051 55.5819 97.6724 54.7335Z" fill="#FF6196"/>
            <path d="M89.3857 73.8885C90.1614 70.9274 90.9327 68.1892 91.5841 65.421C92.2189 62.7364 93.4263 60.2207 95.1236 58.0461C96.1649 56.6791 97.3348 57.2234 98.5304 57.519C99.636 57.789 99.9145 58.5989 99.9616 59.6616C100.136 62.6005 99.241 65.5031 97.4419 67.8335C95.3002 70.4887 92.5317 72.5695 89.3857 73.8885Z" fill="#FF6196"/>
            <path d="M119.944 3.83936C120.008 2.88498 119.983 1.92674 119.871 0.976845C119.783 0.711516 119.607 0.483621 119.374 0.329779C119.184 0.175101 118.961 0.0652523 118.723 0.00838844C118.585 -0.0173228 118.393 0.124089 118.208 0.325493C118.03 0.516698 117.878 0.731542 117.758 0.96399C117.65 1.37492 117.627 1.80359 117.69 2.22384V21.3873C112.023 21.7895 106.357 20.6022 101.329 17.9591C99.685 17.2161 98.3781 15.8856 97.6646 14.2286C96.951 12.5717 96.8824 10.7079 97.4722 9.00304C98.1107 6.59046 98.8178 4.19932 99.5462 1.81246C99.7177 1.24253 99.8162 0.655454 99.5462 0.321208C99.3961 0.158494 99.1888 0.0602123 98.9677 0.0469556C98.6847 0.0500088 98.4105 0.146413 98.1878 0.321208C97.8674 0.512888 97.6121 0.796593 97.4551 1.1354C96.598 3.70652 95.8438 6.30336 95.1882 8.9259C94.9407 9.95936 94.874 11.0279 94.9911 12.0841C95.1569 13.9952 95.8676 15.8186 97.0389 17.3377C98.2102 18.8569 99.7928 20.0081 101.599 20.6545C102.409 20.993 102.884 21.3273 102.657 22.3943C102.344 23.7484 102.04 25.1026 101.732 26.461C99.632 35.6656 97.5436 44.8745 95.4667 54.0877C95.4082 54.4985 95.2275 54.8822 94.9482 55.189C93.5793 56.2771 92.4291 57.6148 91.5586 59.1314C90.4493 61.1327 89.6817 63.3052 89.2875 65.5592C89.2118 66.2782 88.952 66.9655 88.5331 67.5548C88.1143 68.144 87.5505 68.6153 86.8963 68.9231C85.1094 69.8273 83.4682 70.9971 81.4841 72.2141C81.6164 69.8282 81.5906 67.4361 81.407 65.0535C81.256 64.3206 81.288 63.5618 81.5003 62.8442C81.7126 62.1267 82.0985 61.4725 82.624 60.9397C85.2375 58.3506 87.1005 55.1015 88.0148 51.538C88.2878 50.712 88.3627 49.8333 88.2333 48.9729C88.104 48.1126 87.774 47.2948 87.27 46.5856C86.7661 45.8764 86.1023 45.2957 85.3325 44.8905C84.5626 44.4853 83.7081 44.267 82.8382 44.2531C81.4298 44.2374 80.047 44.6304 78.8573 45.3844C74.7683 48.1767 70.7504 51.0715 66.8073 54.0663C64.4633 55.8318 62.2564 57.7858 59.9852 59.637C59.8873 59.5319 59.8025 59.4154 59.7324 59.2899C59.689 58.9744 59.604 58.6661 59.4796 58.3729C57.5812 55.4418 58.8968 53.3121 60.958 51.1223C63.1053 48.8714 64.2919 45.8727 64.2661 42.7619C64.3327 41.1769 63.8363 39.6194 62.8649 38.3653C62.3474 37.7286 61.7096 37.2001 60.988 36.8097C59.9629 36.2487 58.7908 36.0145 57.6289 36.1386C56.467 36.2627 55.3708 36.7391 54.4873 37.5039L53.2917 38.361C50.5621 40.315 47.7981 42.2177 45.1713 44.3089C41.3364 47.3705 37.5841 50.5341 33.9183 53.7963C32.2042 55.309 30.953 57.3744 29.1746 58.78C19.9014 66.1034 10.5297 73.294 1.1922 80.5317C0.871132 80.7232 0.575909 80.9551 0.313735 81.2216C0.286745 81.2606 0.263774 81.3023 0.245172 81.3459C0.0480521 81.8044 -0.119071 82.5629 0.112331 82.8414C0.169054 82.9019 0.23761 82.95 0.313735 82.9828C0.721934 83.1523 1.17623 83.175 1.5993 83.0471C2.15985 82.7563 2.67399 82.3837 3.12483 81.9415L29.2646 61.6811C29.7317 61.3168 30.2245 60.9869 30.7944 60.5755C30.9476 62.2831 31.5807 63.9125 32.6206 65.2757C33.6604 66.6388 35.0646 67.68 36.671 68.2791C38.2774 68.8782 40.0204 69.0107 41.6989 68.6614C43.3774 68.312 44.9229 67.4951 46.1569 66.3048C49.1565 63.4166 52.2547 60.6141 55.3101 57.773L56.4242 56.7274C58.2926 60.3827 58.104 61.3468 55.2329 63.648C37.5893 77.7663 19.9585 91.8875 2.34064 106.012C1.59073 106.611 0.108046 107.156 1.08079 108.433C2.05353 109.71 2.94914 108.394 3.69476 107.798C20.2242 94.5972 36.7423 81.3787 53.2489 68.1432C53.6774 67.8003 54.1273 67.4961 54.7487 67.0419V68.4303C54.6647 70.0345 55.0599 71.6275 55.8841 73.0064C56.7082 74.3853 57.924 75.4879 59.3767 76.1736C60.8007 76.897 62.4173 77.1503 63.9942 76.897C65.5711 76.6436 67.0271 75.8968 68.1528 74.7638C71.551 71.7642 74.9149 68.7045 78.2959 65.6792C78.5102 65.4863 78.7587 65.3406 79.153 65.0407C79.6367 67.9861 79.542 70.9975 78.8744 73.9068C78.7096 74.2936 78.4394 74.6262 78.0945 74.8667C75.3005 77.2807 72.4966 79.6847 69.6826 82.0787L28.4075 117.115C27.9243 117.437 27.4972 117.836 27.1434 118.297C27.0305 118.507 26.9672 118.741 26.9582 118.979C26.9493 119.217 26.9951 119.455 27.092 119.673C27.2856 119.818 27.5094 119.917 27.7468 119.964C27.9842 120.011 28.2291 120.004 28.4633 119.943C28.648 119.889 28.8181 119.794 28.9603 119.664C29.1746 119.493 29.3889 119.274 29.5817 119.099L59.4196 93.8158C60.8551 92.5988 62.3035 91.399 63.8162 90.1306C63.8928 90.3343 63.9544 90.5434 64.0005 90.7562C64.0861 92.4102 64.6556 94.0027 65.6383 95.3358C66.6211 96.669 67.9737 97.6842 69.5284 98.2553C71.0641 98.9225 72.7662 99.108 74.4096 98.7874C76.053 98.4669 77.5606 97.6552 78.733 96.4598C80.7213 94.6472 82.684 92.8045 84.6552 90.9705C85.9407 89.792 87.1834 88.6093 88.5376 87.3366C88.7898 88.2162 88.9944 89.1089 89.1503 90.0106C89.3473 92.1094 89.0578 94.2253 88.3042 96.1941C87.5506 98.1628 86.3532 99.9313 84.8051 101.362C79.8386 106.71 74.7606 111.942 69.7255 117.217C69.3955 117.56 68.9413 117.843 68.7613 118.25C68.5813 118.657 68.4657 119.454 68.6799 119.626L68.7399 119.664C69.1892 119.883 69.6945 119.959 70.1883 119.883C70.3267 119.854 70.45 119.777 70.5354 119.664C70.6554 119.54 70.7711 119.386 70.8868 119.27C74.9663 115.053 79.0672 110.858 83.1168 106.611C84.7513 104.955 86.288 103.205 87.7191 101.371C89.5851 99.3049 90.8224 96.7492 91.2855 94.0042C91.7486 91.2591 91.4181 88.439 90.3331 85.8754C90.2164 85.3037 90.3304 84.7092 90.6502 84.2213C90.9287 83.7413 91.2372 83.2742 91.5543 82.8114C92.569 81.494 93.4141 80.0544 94.0698 78.5262C95.3368 74.7758 97.2817 71.2898 99.8076 68.2417C100.969 66.7695 101.768 65.0448 102.14 63.207C102.512 61.3692 102.447 59.4696 101.95 57.6616C101.775 56.9741 101.775 56.2535 101.95 55.5661C104.119 48.8512 106.351 42.1577 108.562 35.4599L111.519 26.4867L112.432 23.7142C114.377 23.7142 116.211 23.6756 118.037 23.7142C119.554 23.757 120.017 23.0457 120 21.5715C119.91 15.658 119.944 9.74866 119.944 3.83936ZM43.9371 65.1435C42.9791 66.0304 41.7647 66.591 40.4683 66.745C39.1719 66.8989 37.86 66.6383 36.7208 66.0006C35.587 65.5162 34.631 64.6925 33.9842 63.6429C33.3373 62.5932 33.0314 61.369 33.1084 60.1384C33.2457 58.6271 33.8732 57.202 34.8953 56.0803C41.5388 49.7455 48.7368 44.019 56.4028 38.9695C56.8212 38.6737 57.2972 38.4693 57.7998 38.3696C58.1369 38.3074 58.4825 38.3074 58.8196 38.3696C59.2234 38.4482 59.6086 38.6023 59.9552 38.8238C60.656 39.2588 61.2224 39.8796 61.5916 40.6171C61.9607 41.3547 62.1182 42.1802 62.0464 43.0019C61.9576 45.1413 61.2092 47.2009 59.9038 48.8983C55.237 54.9207 49.878 60.3733 43.9371 65.1435ZM66.2202 73.4097C65.4752 74.1758 64.4966 74.6724 63.4385 74.8213C62.3803 74.9703 61.3027 74.7631 60.3752 74.2324C59.3988 73.7249 58.5678 72.977 57.9605 72.0593C57.3533 71.1416 56.9897 70.0844 56.9042 68.9874C56.8047 68.0401 56.9263 67.0828 57.2594 66.1905C57.5925 65.2982 58.1281 64.4954 58.8239 63.8451C65.3288 57.8454 72.3078 52.3811 79.6929 47.5056C79.9157 47.3642 80.1214 47.2228 80.3657 47.0771C81.0107 46.6114 81.7923 46.3734 82.5875 46.4005C83.3826 46.4277 84.1462 46.7185 84.758 47.2271C85.35 47.7285 85.7688 48.4038 85.955 49.157C86.1412 49.9101 86.0852 50.7028 85.795 51.4223C84.8607 54.5342 83.1364 57.351 80.7899 59.5985C76.0633 64.3208 71.1482 68.8674 66.2288 73.3925L66.2202 73.4097ZM91.5501 78.7276C88.8175 83.319 85.3967 87.4638 81.407 91.0176C79.8872 92.4831 78.3088 93.8844 76.6718 95.2214C75.8049 95.9408 74.7625 96.417 73.6512 96.6013C72.5399 96.7856 71.3996 96.6714 70.3469 96.2704C69.2942 95.8694 68.3669 95.1959 67.6599 94.3189C66.9529 93.4419 66.4915 92.3928 66.323 91.279C66.2543 90.6597 66.3091 90.0329 66.4842 89.435C66.6592 88.837 66.9511 88.2796 67.3429 87.7951C73.1743 81.4627 79.8387 75.9515 87.1534 71.4128C87.2424 71.3783 87.3366 71.3594 87.432 71.3571L87.8605 71.7856C86.6606 73.0712 85.4265 74.2967 84.2738 75.6123C83.9272 76.1208 83.6396 76.6671 83.4167 77.2407C84.0509 77.4292 84.7923 77.9263 85.3065 77.7506C87.3763 77.0564 89.4117 76.2508 91.5929 75.3937L93.3541 74.7081C92.6942 76.1651 92.2228 77.4935 91.5586 78.7105L91.5501 78.7276ZM97.4336 67.8646C95.8352 69.8996 93.8317 71.5806 91.5501 72.8012C90.8444 73.1954 90.1202 73.564 89.3775 73.9068C90.1402 70.9885 90.903 68.2846 91.5501 65.5506L91.5758 65.4392C92.2106 62.7546 93.418 60.2389 95.1153 58.0644C96.1566 56.6974 97.3265 57.2416 98.5221 57.5373C99.6277 57.8073 99.9062 58.6172 99.9533 59.6799C100.129 62.6162 99.2372 65.5171 97.4422 67.8475L97.4336 67.8646ZM107.461 31.4404C104.984 38.9395 102.477 46.4386 100.06 53.9463C99.6062 55.3561 98.9892 55.6132 97.6565 54.7648L104.011 26.5124L104.988 22.1758L110.131 23.3799L109.098 26.5124L107.461 31.4404Z" fill="black"/>
        </g>
    <g id ="redux">
        <path d="M83.1473 82.6013C87.5756 82.1428 90.9352 78.3253 90.7823 73.7438C90.63 69.1627 86.812 65.4975 82.2309 65.4975H81.9258C77.1914 65.6503 73.5267 69.6207 73.6795 74.3546C73.8323 76.6453 74.7483 78.6305 76.1227 80.0049C70.9308 90.2368 62.9902 97.7194 51.0792 103.98C42.9858 108.256 34.5872 109.784 26.1886 108.715C19.3167 107.798 13.972 104.745 10.612 99.7046C5.72578 92.2219 5.26781 84.128 9.39093 76.0346C12.2925 70.2314 16.8731 65.9555 19.7747 63.8175C19.1639 61.8324 18.2475 58.4728 17.7895 56.0297C-4.35282 72.0643 -2.06204 93.7491 4.65703 103.98C9.69609 111.616 19.9275 116.35 31.2276 116.35C34.2816 116.35 37.3355 116.045 40.3898 115.282C59.9362 111.464 74.7487 99.8574 83.1473 82.6013ZM110.024 63.6652C98.4178 50.0738 81.315 42.5911 61.7686 42.5911H59.3255C57.9511 39.8424 55.0495 38.0096 51.8428 38.0096H51.5372C46.8037 38.1624 43.1391 42.1327 43.2914 46.8671C43.4442 51.4482 47.2617 55.1133 51.8428 55.1133H52.148C55.5075 54.9605 58.4091 52.8225 59.6306 49.921H62.3794C73.9852 49.921 84.9797 53.2805 94.9059 59.8472C102.541 64.8868 108.038 71.4535 111.092 79.3941C113.688 85.808 113.535 92.0691 110.787 97.4143C106.511 105.508 99.3342 109.936 89.8664 109.936C83.7581 109.936 77.9555 108.104 74.9011 106.729C73.2216 108.256 70.1672 110.7 68.0292 112.227C74.5959 115.281 81.315 116.961 87.7284 116.961C102.388 116.961 113.23 108.867 117.353 100.774C121.782 91.9163 121.476 76.6453 110.024 63.6652ZM32.4492 85.1968C32.602 89.7783 36.4195 93.443 41.0006 93.443H41.3062C46.0401 93.2907 49.7048 89.3199 49.552 84.586C49.3997 80.0044 45.5817 76.3397 41.0006 76.3397H40.6955C40.3898 76.3397 39.9314 76.3397 39.6267 76.4921C33.3656 66.1078 30.7697 54.8077 31.6861 42.5907C32.2964 33.428 35.3508 25.4869 40.6955 18.9202C45.1237 13.2699 53.6751 10.5211 59.4783 10.3688C75.6647 10.0632 82.5361 30.2208 82.9945 38.3147C84.9797 38.7727 88.3392 39.8419 90.63 40.6055C88.7972 15.8668 73.5267 3.03894 58.8675 3.03894C45.1237 3.03894 32.4492 12.9652 27.4097 27.6253C20.3855 47.1722 24.9666 65.9555 33.518 80.7685C32.7548 81.8372 32.2964 83.5172 32.4492 85.1972V85.1968Z" fill="#764ABC"/>
    </g>

    <g id ="git">
        <path d="M103.02 47.8219L57.1758 1.98038C54.5372 -0.6598 50.2552 -0.6598 47.6134 1.98038L38.0937 11.5001L50.1699 23.5763C52.9762 22.6281 56.1943 23.2642 58.4313 25.5012C60.6789 27.7525 61.3106 30.9981 60.3393 33.8134L71.9775 45.452C74.7932 44.482 78.0421 45.1095 80.291 47.3621C83.434 50.5039 83.434 55.596 80.291 58.7399C77.1471 61.8841 72.055 61.8841 68.9095 58.7399C66.5454 56.3733 65.9613 52.9013 67.1582 49.9888L56.3046 39.1352L56.3034 67.6973C57.0902 68.0863 57.8088 68.6002 58.4313 69.2189C61.5743 72.3607 61.5743 77.4532 58.4313 80.5995C55.2874 83.7422 50.1929 83.7422 47.0535 80.5995C43.9105 77.4532 43.9105 72.3611 47.0535 69.2193C47.8067 68.4658 48.7019 67.869 49.6871 67.4635V38.6352C48.7004 38.2324 47.8048 37.6353 47.0535 36.8793C44.6722 34.5013 44.0996 31.0071 45.3198 28.0831L33.4154 16.1775L1.98105 47.6099C-0.660352 50.2525 -0.660352 54.5349 1.98105 57.1755L47.8259 103.018C50.4652 105.658 54.7464 105.658 57.3891 103.018L103.019 57.3884C105.66 54.747 105.66 50.4621 103.019 47.8219" fill="#DE4C36"/>
</g>
    <g id="html">

            <path d="M22.1325 102.004L13.7063 7.5H106.294L97.8563 101.989L59.9438 112.5L22.1325 102.004Z" fill="#E44F26"/>
            <path d="M60 104.468L90.6375 95.9738L97.845 15.2288H60V104.468Z" fill="#F1662A"/>
            <path d="M60 50.2763H44.6625L43.605 38.4075H60V26.8163H30.9375L31.215 29.9288L34.0613 61.8675H60V50.2763ZM60 80.3775L59.9475 80.3925L47.04 76.9088L46.215 67.665H34.5787L36.2025 85.86L59.9475 92.4525L60 92.4375V80.3775Z" fill="#EBEBEB"/>
            <path d="M59.9587 50.2763V61.8675H74.2312L72.8887 76.9013L59.9587 80.3888V92.4488L83.7225 85.86L83.895 83.9025L86.6175 53.3888L86.9025 50.2763H59.9587ZM59.9587 26.8163V38.4075H87.9562L88.1887 35.805L88.7175 29.9288L88.995 26.8163H59.9587Z" fill="white"/>

    </g>
    <g id="css">

            <path d="M22.1325 101.154L13.71 7.4375H106.29L97.8562 101.139L59.9437 111.562L22.1325 101.154Z" fill="#1572B6"/>
            <path d="M60 103.597L90.6375 95.1739L97.845 15.1018H60V103.597Z" fill="#33A9DC"/>
            <path d="M60 49.054H75.3375L76.395 37.2842H60V25.7896H89.0625L88.785 28.8724L85.9387 60.5487H60V49.054Z" fill="white"/>
            <path d="M60.0713 78.9045L60.0188 78.9193L47.1113 75.4609L46.2863 66.2942H34.65L36.2738 84.3413L60.015 90.8788L60.0713 90.864V78.9045Z" fill="#EBEBEB"/>
            <path d="M74.3513 60.0615L72.9563 75.4534L60.03 78.9119V90.8714L83.79 84.3412L83.9663 82.4001L85.98 60.0615H74.3513Z" fill="white"/>
            <path d="M60.0413 25.7896V37.2842H32.0438L31.8113 34.6997L31.2825 28.8724L31.005 25.7896H60.0413ZM60 49.054V60.5487H47.2538L47.0213 57.9642L46.4963 52.1369L46.2188 49.054H60Z" fill="#EBEBEB"/>

    </g>
    <g id="react">
                <path d="M92.9056 32.7028C91.7031 32.2887 90.4904 31.9051 89.2687 31.5524C89.4739 30.7107 89.6628 29.8792 89.8306 29.0624C92.5838 15.6484 90.7839 4.84184 84.6361 1.28381C78.7416 -2.12716 69.1016 1.42955 59.3659 9.93348C58.4064 10.7731 57.4682 11.6369 56.5522 12.524C55.9389 11.9341 55.3149 11.3556 54.6803 10.7889C44.4767 1.69623 34.2493 -2.13602 28.1081 1.43221C22.2189 4.8538 20.475 15.0127 22.9538 27.7254C23.2004 28.9845 23.4788 30.2371 23.7888 31.4819C22.3412 31.8948 20.9442 32.3342 19.6073 32.802C7.64443 36.9882 0.00476074 43.5483 0.00476074 50.353C0.00476074 57.3809 8.20629 64.4301 20.6662 68.7044C21.6763 69.0495 22.6949 69.3693 23.7209 69.6635C23.3877 71.0042 23.0918 72.3541 22.8337 73.7114C20.4706 86.2035 22.316 96.1224 28.1893 99.5223C34.2555 103.033 44.437 99.4248 54.3506 90.7268C55.1545 90.0197 55.9407 89.2925 56.7084 88.546C57.7004 89.5067 58.7189 90.4394 59.7627 91.343C69.366 99.6365 78.8502 102.985 84.7177 99.5763C90.7782 96.055 92.748 85.3995 90.1907 72.4357C89.9893 71.42 89.7634 70.4094 89.5132 69.4048C90.2282 69.1921 90.93 68.9733 91.6141 68.7456C104.567 64.4385 112.995 57.4748 112.995 50.353C112.995 43.5235 105.109 36.9191 92.9056 32.7028ZM90.0963 64.1474C89.4783 64.3525 88.8445 64.5506 88.1984 64.7433C86.7683 60.1996 84.8387 55.3684 82.4769 50.3764C84.7305 45.5036 86.586 40.7341 87.9759 36.2201C89.1319 36.5558 90.2534 36.9098 91.3347 37.2832C101.791 40.8962 108.169 46.2372 108.169 50.353C108.169 54.7367 101.281 60.4277 90.0963 64.1474ZM85.4557 73.3765C86.5865 79.1087 86.7476 84.2916 85.9986 88.3436C85.3259 91.9845 83.9727 94.4116 82.299 95.3839C78.7385 97.4526 71.1235 94.7637 62.911 87.6707C61.9401 86.8305 60.9927 85.9634 60.0699 85.0704C63.2539 81.5757 66.4358 77.5131 69.5412 73.0009C75.0036 72.5145 80.1641 71.7189 84.844 70.6332C85.0694 71.5426 85.2734 72.4574 85.4557 73.3765ZM38.5257 95.0264C35.0469 96.2592 32.2759 96.2947 30.6009 95.3254C27.0369 93.2625 25.5552 85.2981 27.5762 74.6151C27.8165 73.3527 28.0916 72.0973 28.4012 70.8502C33.0294 71.8779 38.1523 72.6168 43.6275 73.0625C46.7542 77.4777 50.0278 81.5358 53.3271 85.0894C52.6259 85.7704 51.9082 86.4339 51.1745 87.0793C46.7904 90.9253 42.3974 93.6541 38.5257 95.0264ZM22.2277 64.1204C16.7181 62.2302 12.168 59.7739 9.04931 57.0934C6.24661 54.6849 4.83202 52.2932 4.83202 50.353C4.83202 46.2235 10.9657 40.9564 21.1962 37.3767C22.4378 36.9426 23.7372 36.5328 25.0856 36.1483C26.4997 40.7642 28.3544 45.5905 30.5926 50.4708C28.3252 55.4233 26.4441 60.3267 25.0163 64.9971C24.0798 64.7278 23.15 64.4355 22.2277 64.1204ZM27.691 26.7947C25.5676 15.9031 26.9777 7.68712 30.5268 5.62504C34.3067 3.42873 42.6653 6.56017 51.4755 14.4116C52.05 14.9247 52.6152 15.4483 53.1708 15.982C49.8879 19.5201 46.6443 23.5481 43.5454 27.9372C38.2313 28.4315 33.1446 29.2254 28.4678 30.289C28.1797 29.1311 27.9206 27.9661 27.691 26.7952V26.7947ZM76.4301 38.874C75.3255 36.9589 74.1799 35.068 72.9941 33.2025C76.5992 33.6601 80.0533 34.2674 83.297 35.0098C82.3233 38.1426 81.1095 41.4176 79.6808 44.7754C78.6365 42.7867 77.5527 40.8192 76.4301 38.874ZM56.5544 19.4443C58.7806 21.8652 61.0104 24.5679 63.2036 27.5004C58.7546 27.2895 54.2982 27.2886 49.8491 27.4977C52.0445 24.5922 54.2932 21.8931 56.5544 19.4443ZM36.5511 38.9072C35.4425 40.8368 34.3789 42.792 33.3613 44.7714C31.956 41.4255 30.7532 38.1355 29.7712 34.9584C32.9949 34.2346 36.4328 33.6428 40.0149 33.1936C38.8159 35.0705 37.661 36.9754 36.5511 38.9067V38.9072ZM40.1178 67.857C36.4169 67.4424 32.9274 66.8811 29.7045 66.1768C30.702 62.943 31.9312 59.583 33.367 56.1653C34.3887 58.1462 35.4567 60.1026 36.57 62.0331C37.7149 64.0177 38.9005 65.9615 40.1178 67.857ZM56.6877 81.6027C54.3996 79.1256 52.1177 76.3848 49.8892 73.4372C52.0528 73.5223 54.2584 73.5657 56.5001 73.5657C58.8031 73.5657 61.0797 73.5139 63.3206 73.4138C61.1203 76.4145 58.8989 79.1592 56.6877 81.6027ZM79.7263 55.9908C81.2366 59.4461 82.5096 62.7884 83.5203 65.9668C80.2444 66.7172 76.7073 67.3214 72.9804 67.7702C74.1746 65.87 75.3311 63.9462 76.4491 61.9999C77.5858 60.0215 78.6784 58.018 79.7263 55.9908ZM72.268 59.5794C70.5565 62.5635 68.7487 65.491 66.8475 68.3571C63.4038 68.6019 59.9525 68.7235 56.5001 68.7217C52.9837 68.7217 49.5635 68.6118 46.27 68.3974C44.3193 65.5379 42.477 62.6053 40.7472 59.606H40.7476C39.0259 56.6225 37.4177 53.5745 35.9265 50.4686C37.4139 47.3619 39.0172 44.3125 40.733 41.3268L40.7326 41.3272C42.4478 38.3407 44.2753 35.4207 46.2113 32.5734C49.5715 32.3183 53.0172 32.1854 56.4996 32.1854H56.5001C59.9984 32.1854 63.4486 32.3196 66.8078 32.5765C68.7243 35.4195 70.5402 38.3295 72.2521 41.3011C73.9736 44.2802 75.5982 47.3148 77.1231 50.3999C75.6138 53.5166 73.9944 56.5784 72.268 59.5794ZM82.2253 5.48062C86.0087 7.67073 87.4803 16.5025 85.103 28.0842C84.9512 28.8231 84.7808 29.5758 84.5955 30.339C79.9072 29.2528 74.8169 28.4453 69.4874 27.9434C66.3828 23.506 63.1656 19.4718 59.9361 15.9793C60.7825 15.1605 61.6491 14.3628 62.5349 13.5872C70.8768 6.30147 78.6732 3.42474 82.2253 5.48062ZM56.5001 40.2264C62.0724 40.2264 66.5898 44.7603 66.5898 50.353C66.5898 55.9456 62.0724 60.4796 56.5001 60.4796C50.9278 60.4796 46.4104 55.9456 46.4104 50.353C46.4104 44.7603 50.9278 40.2264 56.5001 40.2264Z" fill="#00D8FF"/>
    </g>
    <g id="iconGit">
        <circle cx="28.2141" cy="18.8683" r="18.8683" fill="#1F2626"/>
            <path fill-rule="evenodd" clip-rule="evenodd" d="M28.2141 0C17.7894 0 9.34583 8.44354 9.34583 18.8682C9.34583 27.2175 14.7469 34.2695 22.247 36.7695C23.1904 36.9346 23.5442 36.3686 23.5442 35.8733C23.5442 35.4251 23.5206 33.9393 23.5206 32.3591C18.78 33.2317 17.5535 31.2034 17.1761 30.142C16.9639 29.5996 16.0441 27.925 15.2422 27.4769C14.5818 27.1231 13.6384 26.2505 15.2186 26.2269C16.7044 26.2033 17.7658 27.5948 18.1196 28.1609C19.8177 31.0147 22.53 30.2128 23.6149 29.7175C23.78 28.4911 24.2753 27.6656 24.8178 27.1939C20.6196 26.7222 16.2327 25.0948 16.2327 17.8777C16.2327 15.8257 16.9639 14.1276 18.1667 12.8068C17.9781 12.3351 17.3177 10.4011 18.3554 7.80674C18.3554 7.80674 19.9356 7.31145 23.5442 9.74073C25.0536 9.3162 26.6574 9.10393 28.2612 9.10393C29.865 9.10393 31.4688 9.3162 32.9783 9.74073C36.5869 7.28786 38.1671 7.80674 38.1671 7.80674C39.2048 10.4011 38.5444 12.3351 38.3558 12.8068C39.5586 14.1276 40.2898 15.8022 40.2898 17.8777C40.2898 25.1184 35.8793 26.7222 31.6811 27.1939C32.3651 27.7835 32.9547 28.9156 32.9547 30.6845C32.9547 33.2081 32.9311 35.2365 32.9311 35.8733C32.9311 36.3686 33.2849 36.9582 34.2283 36.7695C37.974 35.5049 41.2287 33.0976 43.5346 29.8863C45.8404 26.6751 47.0812 22.8216 47.0823 18.8682C47.0823 8.44354 38.6388 0 28.2141 0Z" fill="currentColor"/>

        <path d="M7.63127 53.0178H8.48327V56.2218C8.09127 56.5658 7.62727 56.8298 7.09127 57.0138C6.55527 57.1978 5.99127 57.2898 5.39927 57.2898C4.55927 57.2898 3.80327 57.1058 3.13127 56.7378C2.45927 56.3698 1.93127 55.8618 1.54727 55.2138C1.16327 54.5578 0.971265 53.8258 0.971265 53.0178C0.971265 52.2098 1.16327 51.4818 1.54727 50.8338C1.93127 50.1778 2.45927 49.6658 3.13127 49.2978C3.80327 48.9298 4.56327 48.7458 5.41127 48.7458C6.05127 48.7458 6.63927 48.8498 7.17527 49.0578C7.71127 49.2578 8.16327 49.5578 8.53127 49.9578L7.97927 50.5218C7.31527 49.8658 6.47127 49.5378 5.44727 49.5378C4.76727 49.5378 4.15127 49.6898 3.59927 49.9938C3.05527 50.2898 2.62727 50.7058 2.31527 51.2418C2.00327 51.7698 1.84727 52.3618 1.84727 53.0178C1.84727 53.6738 2.00327 54.2658 2.31527 54.7938C2.62727 55.3218 3.05527 55.7378 3.59927 56.0418C4.14327 56.3458 4.75527 56.4978 5.43527 56.4978C6.29927 56.4978 7.03127 56.2818 7.63127 55.8498V53.0178ZM12.4365 48.8178H13.3245V57.2178H12.4365V48.8178ZM19.1296 49.5858H16.1776V48.8178H22.9696V49.5858H20.0176V57.2178H19.1296V49.5858ZM32.8482 48.8178V57.2178H31.9722V53.3418H26.7162V57.2178H25.8282V48.8178H26.7162V52.5618H31.9722V48.8178H32.8482ZM40.414 57.2898C39.326 57.2898 38.478 56.9778 37.87 56.3538C37.262 55.7298 36.958 54.8218 36.958 53.6298V48.8178H37.846V53.5938C37.846 54.5698 38.066 55.2978 38.506 55.7778C38.946 56.2578 39.582 56.4978 40.414 56.4978C41.254 56.4978 41.894 56.2578 42.334 55.7778C42.774 55.2978 42.994 54.5698 42.994 53.5938V48.8178H43.858V53.6298C43.858 54.8218 43.554 55.7298 42.946 56.3538C42.346 56.9778 41.502 57.2898 40.414 57.2898ZM53.2659 52.8858C53.8179 53.0058 54.2419 53.2458 54.5379 53.6058C54.8419 53.9578 54.9939 54.4138 54.9939 54.9738C54.9939 55.6938 54.7259 56.2498 54.1899 56.6418C53.6619 57.0258 52.8779 57.2178 51.8379 57.2178H47.9739V48.8178H51.5979C52.5339 48.8178 53.2579 49.0058 53.7699 49.3818C54.2899 49.7578 54.5499 50.2898 54.5499 50.9778C54.5499 51.4418 54.4339 51.8378 54.2019 52.1658C53.9779 52.4858 53.6659 52.7258 53.2659 52.8858ZM48.8619 49.5498V52.5978H51.5379C52.2179 52.5978 52.7419 52.4698 53.1099 52.2138C53.4779 51.9498 53.6619 51.5698 53.6619 51.0738C53.6619 50.5778 53.4779 50.2018 53.1099 49.9458C52.7419 49.6818 52.2179 49.5498 51.5379 49.5498H48.8619ZM51.8259 56.4858C52.5779 56.4858 53.1459 56.3578 53.5299 56.1018C53.9139 55.8458 54.1059 55.4458 54.1059 54.9018C54.1059 53.8538 53.3459 53.3298 51.8259 53.3298H48.8619V56.4858H51.8259Z" fill="#BDEBEA"/>
        <defs>
            <linearGradient id="paint0_linear_1_3202" x1="9.34583" y1="18.4028" x2="47.0823" y2="18.4028" gradientUnits="userSpaceOnUse">
                <stop stop-color="#00F5A0"/>
                <stop offset="1" stop-color="#00D9F5"/>
            </linearGradient>
            <clipPath id="clip0_1_3202">
                <rect width="37.7365" height="37.7365" fill="white" transform="translate(9.34583)"/>
            </clipPath>
        </defs>
    </g>
    <g id="iconLinkedin">

        <ellipse cx="35.3521" cy="18.868" rx="18.8683" ry="18.8683" fill="currentColor"/>
        <path d="M26.0634 28.7051H30.0114V14.0974H26.0634V28.7051ZM28.0374 7.64899C26.7214 7.64899 25.6686 8.70179 25.6686 10.0178C25.6686 11.3338 26.7214 12.3866 28.0374 12.3866C29.3534 12.3866 30.4062 11.3338 30.4062 10.0178C30.4062 8.70179 29.3534 7.64899 28.0374 7.64899ZM36.723 16.3346V14.0974H32.775V28.7051H36.723V21.2039C36.723 16.9926 42.1187 16.7294 42.1187 21.2039V28.7051H46.0667V19.7563C46.0667 12.6498 38.5655 12.913 36.723 16.3346Z" fill="#1F2626"/>
        <path d="M1.67566 48.8178H2.56366V56.4498H7.26766V57.2178H1.67566V48.8178ZM10.1821 48.8178H11.0701V57.2178H10.1821V48.8178ZM22.2632 48.8178V57.2178H21.5312L16.1312 50.4018V57.2178H15.2432V48.8178H15.9752L21.3872 55.6338V48.8178H22.2632ZM29.0489 53.2698L27.3329 55.0098V57.2178H26.4449V48.8178H27.3329V53.8938L32.2649 48.8178H33.2849L29.6489 52.6218L33.5369 57.2178H32.4809L29.0489 53.2698ZM42.3561 56.4498V57.2178H36.4161V48.8178H42.1761V49.5858H37.3041V52.5738H41.6481V53.3298H37.3041V56.4498H42.3561ZM45.8835 48.8178H49.3035C50.1915 48.8178 50.9755 48.9978 51.6555 49.3578C52.3355 49.7098 52.8635 50.2058 53.2395 50.8458C53.6155 51.4778 53.8035 52.2018 53.8035 53.0178C53.8035 53.8338 53.6155 54.5618 53.2395 55.2018C52.8635 55.8338 52.3355 56.3298 51.6555 56.6898C50.9755 57.0418 50.1915 57.2178 49.3035 57.2178H45.8835V48.8178ZM49.2555 56.4498C49.9915 56.4498 50.6355 56.3058 51.1875 56.0178C51.7395 55.7218 52.1675 55.3178 52.4715 54.8058C52.7755 54.2858 52.9275 53.6898 52.9275 53.0178C52.9275 52.3458 52.7755 51.7538 52.4715 51.2418C52.1675 50.7218 51.7395 50.3178 51.1875 50.0298C50.6355 49.7338 49.9915 49.5858 49.2555 49.5858H46.7715V56.4498H49.2555ZM57.2375 48.8178H58.1255V57.2178H57.2375V48.8178ZM69.3186 48.8178V57.2178H68.5866L63.1866 50.4018V57.2178H62.2986V48.8178H63.0306L68.4426 55.6338V48.8178H69.3186Z" fill="#BDEBEA"/>
        <defs>
            <linearGradient id="paint0_linear_1_3195" x1="16.4839" y1="18.868" x2="54.2204" y2="18.868" gradientUnits="userSpaceOnUse">
                <stop stop-color="#00F5A0"/>
                <stop offset="1" stop-color="#00D9F5"/>
            </linearGradient>
        </defs>
    </g>
    <g id="iconGmail">

        <circle cx="23.2479" cy="18.8683" r="18.8683" fill="currentColor"/>
            <path d="M35.0406 11.4974V26.2383C35.0406 27.0748 34.4031 27.7123 33.5666 27.7123H32.0925V14.3343L23.248 20.6876L14.4035 14.3343V27.7123H12.9294C12.0929 27.7123 11.4553 27.0748 11.4553 26.2383V11.4974C11.4553 11.0788 11.613 10.7103 11.8776 10.4494C12.0155 10.3115 12.1796 10.2027 12.3603 10.1295C12.5409 10.0563 12.7345 10.0202 12.9294 10.0233H13.421L23.248 17.1483L33.0749 10.0233H33.5666C33.9852 10.0233 34.3537 10.1811 34.6183 10.4494C34.8829 10.7103 35.0406 11.0788 35.0406 11.4974Z" fill="#1F2626"/>

        <path d="M7.38837 53.0178H8.24037V56.2218C7.84837 56.5658 7.38437 56.8298 6.84837 57.0138C6.31237 57.1978 5.74837 57.2898 5.15637 57.2898C4.31637 57.2898 3.56037 57.1058 2.88837 56.7378C2.21637 56.3698 1.68837 55.8618 1.30437 55.2138C0.920374 54.5578 0.728374 53.8258 0.728374 53.0178C0.728374 52.2098 0.920374 51.4818 1.30437 50.8338C1.68837 50.1778 2.21637 49.6658 2.88837 49.2978C3.56037 48.9298 4.32037 48.7458 5.16837 48.7458C5.80837 48.7458 6.39637 48.8498 6.93237 49.0578C7.46837 49.2578 7.92037 49.5578 8.28837 49.9578L7.73637 50.5218C7.07237 49.8658 6.22837 49.5378 5.20437 49.5378C4.52437 49.5378 3.90837 49.6898 3.35637 49.9938C2.81237 50.2898 2.38437 50.7058 2.07237 51.2418C1.76037 51.7698 1.60437 52.3618 1.60437 53.0178C1.60437 53.6738 1.76037 54.2658 2.07237 54.7938C2.38437 55.3218 2.81237 55.7378 3.35637 56.0418C3.90037 56.3458 4.51237 56.4978 5.19237 56.4978C6.05637 56.4978 6.78837 56.2818 7.38837 55.8498V53.0178ZM20.9176 48.8178V57.2178H20.0656V50.4978L16.7656 56.1498H16.3456L13.0456 50.5338V57.2178H12.1936V48.8178H12.9256L16.5736 55.0458L20.1856 48.8178H20.9176ZM30.3626 54.9738H25.6826L24.6746 57.2178H23.7506L27.5906 48.8178H28.4666L32.3066 57.2178H31.3706L30.3626 54.9738ZM30.0386 54.2538L28.0226 49.7418L26.0066 54.2538H30.0386ZM35.1361 48.8178H36.0241V57.2178H35.1361V48.8178ZM40.1972 48.8178H41.0852V56.4498H45.7892V57.2178H40.1972V48.8178Z" fill="#BDEBEA"/>
        <defs>
            <linearGradient id="paint0_linear_1_3188" x1="4.37964" y1="18.8683" x2="42.1161" y2="18.8683" gradientUnits="userSpaceOnUse">
                <stop stop-color="#00F5A0"/>
                <stop offset="1" stop-color="#00D9F5"/>
            </linearGradient>
            <clipPath id="clip0_1_3188">
                <rect width="23.5853" height="23.5853" fill="white" transform="translate(11.4551 7.07556)"/>
            </clipPath>
        </defs>

    </g>
    <g id="arrow">
            <path fill-rule="evenodd" clip-rule="evenodd" d="M15.9993 2C16.2645 2 16.5189 2.10536 16.7064 2.29289C16.894 2.48043 16.9993 2.73478 16.9993 3V26.586L23.2913 20.292C23.4791 20.1042 23.7338 19.9987 23.9993 19.9987C24.2649 19.9987 24.5195 20.1042 24.7073 20.292C24.8951 20.4798 25.0006 20.7344 25.0006 21C25.0006 21.2656 24.8951 21.5202 24.7073 21.708L16.7073 29.708C16.6144 29.8011 16.5041 29.875 16.3826 29.9254C16.2611 29.9758 16.1308 30.0018 15.9993 30.0018C15.8678 30.0018 15.7375 29.9758 15.616 29.9254C15.4946 29.875 15.3842 29.8011 15.2913 29.708L7.29131 21.708C7.10354 21.5202 6.99805 21.2656 6.99805 21C6.99805 20.7344 7.10354 20.4798 7.29131 20.292C7.47908 20.1042 7.73376 19.9987 7.99931 19.9987C8.26486 19.9987 8.51954 20.1042 8.70731 20.292L14.9993 26.586V3C14.9993 2.73478 15.1047 2.48043 15.2922 2.29289C15.4797 2.10536 15.7341 2 15.9993 2Z" fill="#D7E5EC"/>
    </g>
</svg>
